<?xml version="1.0" standalone="no"?>
<!DOCTYPE svg PUBLIC "-//W3C//DTD SVG 1.1//EN" "http://www.w3.org/Graphics/SVG/1.1/DTD/svg11.dtd" >
<svg>
<metadata>
Created by FontForge 20110222 at Sun Sep 23 12:35:07 2012
 By www-data
Copyright (c) 2011 by Andy Mangold. All rights reserved.
</metadata>
<defs>
<font id="Pompadour-Black" horiz-adv-x="700" >
  <font-face 
    font-family="Pompadour"
    font-weight="900"
    font-stretch="normal"
    units-per-em="1000"
    panose-1="2 0 9 6 0 0 0 2 0 4"
    ascent="750"
    descent="-250"
    x-height="604"
    cap-height="604"
    bbox="0 -250 994 785"
    underline-thickness="50"
    underline-position="-50"
    unicode-range="U+0020-2026"
  />
    <missing-glyph />
    <glyph glyph-name="space" unicode=" " horiz-adv-x="305" 
 />
    <glyph glyph-name="space" unicode="&#xa0;" horiz-adv-x="305" 
 />
    <glyph glyph-name="five" unicode="5" 
d="M366 332q-101 0 -160 6.5t-90.5 16.5t-40.5 21t-9 20v-80h272q66 0 123.5 -4t100.5 -20t67.5 -47t24.5 -85q0 -42 -14 -73.5t-48.5 -52.5t-93 -31.5t-148.5 -10.5t-149 14t-93.5 37t-48 53.5t-13.5 63.5q0 28 11.5 51t29.5 39.5t40 25t43 8.5t43 -8t40 -24t29.5 -39
t11.5 -53q0 -32 -10.5 -55.5t-27.5 -40t-39.5 -24.5t-46.5 -8q4 -1 12 -2q7 -1 18.5 -1.5t29.5 -0.5q22 0 45 10t41.5 27.5t30 41.5t11.5 53q0 31 -15.5 56.5t-41 43t-60 27t-71.5 9.5h-124v308h20q0 -51 21.5 -77.5t54.5 -26.5q46 0 91.5 16t92 35.5t97 36t107.5 16.5
q28 0 51 -11t39.5 -29.5t25 -42.5t8.5 -49v-200q-3 6 -14 16t-41.5 20t-86 17t-146.5 7z" />
    <glyph glyph-name="six" unicode="6" 
d="M446 360q37 0 74.5 -9t67 -28.5t48 -50.5t18.5 -76q0 -48 -14 -86t-48.5 -64t-93 -40t-148.5 -14q-84 0 -142 17.5t-94 55t-52 96t-16 139.5q0 141 75.5 222.5t228.5 81.5q76 0 130 -9.5t88.5 -28t50 -45.5t15.5 -61q0 -20 -8.5 -38t-22.5 -31.5t-33 -22t-40 -8.5
q-20 0 -38 8.5t-31.5 22t-22 31.5t-8.5 38q0 36 21 63.5t63 36.5h-28q-148 0 -148 -212q7 3 22 6q12 2 33 4t53 2zM358 324h-20v-312h20v312z" />
    <glyph glyph-name="seven" unicode="7" 
d="M656 612v-184q0 -47 -10 -73t-25 -44.5t-33 -36.5t-33 -50t-25 -84.5t-10 -139.5h-388q0 80 21.5 133.5t56 88t79.5 53t91.5 29t91.5 16.5t80 15t57 24.5t23 44.5q0 -11 -9 -22.5t-40.5 -22t-91 -17t-159.5 -6.5q-92 0 -147 -6.5t-85 -15.5t-40.5 -18.5t-11.5 -15.5h-4
v200q0 25 8.5 49t25 42.5t40.5 29.5t54 11q55 0 106 -16.5t98.5 -36t93 -35.5t90.5 -16q33 0 52.5 26.5t19.5 77.5h24z" />
    <glyph glyph-name="eight" unicode="8" 
d="M544 320q51 -21 81.5 -61.5t30.5 -82.5q0 -38 -12 -71t-45.5 -58.5t-93 -40t-153.5 -14.5q-96 0 -156 14.5t-94 40t-46 58.5t-12 71q0 21 8 42.5t23 41t36.5 35.5t48.5 25q-39 15 -61.5 49.5t-22.5 70.5q0 34 14 64t46 52.5t85 35t131 12.5t131 -12.5t85 -35t46 -52.5
t14 -64q0 -36 -22.5 -70.5t-61.5 -49.5zM360 304h-20v-292h20v292zM360 584h-20v-232h20v232z" />
    <glyph glyph-name="nine" unicode="9" 
d="M256 236q-39 0 -77 8.5t-68 28t-48.5 51t-18.5 76.5q0 48 14 86t48.5 64t94 40t151.5 14q82 0 140 -17.5t94.5 -55t53 -95t16.5 -136.5q0 -144 -77 -226t-227 -82q-153 0 -220.5 39t-67.5 105q0 21 8.5 39t22.5 31.5t33 21.5t40 8t40 -8t33 -21.5t22.5 -31.5t8.5 -39
q0 -36 -23 -63.5t-65 -36.5h28q78 0 113 53.5t35 162.5q-8 -4 -22 -8q-12 -3 -32 -5.5t-50 -2.5zM340 272h20v312h-20v-312z" />
    <glyph glyph-name="zero" unicode="0" 
d="M348 604q87 0 146 -24t95 -65t51.5 -96.5t15.5 -118.5q0 -65 -12 -121t-46 -97.5t-94 -65.5t-156 -24q-95 0 -154 24t-92.5 65.5t-45.5 97.5t-12 121q0 63 15.5 118.5t51 96.5t93.5 65t144 24zM360 584h-20v-572h20v572z" />
    <glyph glyph-name="four" unicode="4" 
d="M644 448v-428v-20h-460v20h148v96h-296v20q0 47 11.5 76.5t28 53.5t36.5 48t36.5 61.5t28 93.5t11.5 143h456q0 -80 -25.5 -137t-66.5 -96t-94 -64.5t-108 -42.5t-108 -29.5t-94 -26.5t-66.5 -32.5t-25.5 -47.5h276v116q27 4 56 14q25 8 55.5 21t60.5 33q45 27 75 59.5
t45 68.5h20z" />
    <glyph glyph-name="one" unicode="1" 
d="M506 612v-592h148v-20h-148h-312h-148v20h148v416q-60 -12 -128 -12h-20v16h20q82 0 160 24q36 12 96 36q90 42 160 112h24z" />
    <glyph glyph-name="two" unicode="2" 
d="M654 128q0 -26 -8.5 -50t-25 -43.5t-39.5 -31t-51 -11.5q-57 0 -108 16t-98 35.5t-92 36t-90 16.5q-33 0 -54.5 -26.5t-21.5 -77.5h-20v200q0 42 23 62.5t58 31t75 16.5t75 19t58 39t23 76q0 28 -11.5 52.5t-30 42t-41.5 27.5t-45 10q-18 0 -29.5 -0.5t-18.5 -1.5
q-8 -1 -12 -2q24 0 46.5 -8t39.5 -24.5t27.5 -40.5t10.5 -55q0 -30 -11.5 -53t-29.5 -39t-40 -24t-43 -8t-43 8.5t-40 25t-29.5 39t-11.5 51.5q0 33 13.5 63.5t48 53.5t93.5 37t149 14t148.5 -10.5t93 -31.5t48.5 -52.5t14 -73.5q0 -54 -24.5 -84.5t-67.5 -45.5
t-100.5 -18.5t-123.5 -3.5q-99 0 -153.5 -8.5t-80 -21.5t-30 -27.5t-4.5 -26.5q0 9 8.5 20.5t39.5 22t90.5 18t161.5 7.5q91 0 146.5 7t85.5 16.5t40 18.5t12 14v-196z" />
    <glyph glyph-name="three" unicode="3" 
d="M654 408q0 -48 -27.5 -73.5t-96.5 -34.5q57 -15 90.5 -46t33.5 -94q0 -42 -14 -73.5t-48.5 -52.5t-93 -31.5t-148.5 -10.5t-149 14t-93.5 37t-48 53.5t-13.5 63.5q0 28 11.5 51t29.5 39.5t40 25t43 8.5t43 -8t40 -24t29.5 -39t11.5 -53q0 -32 -10.5 -55.5t-27.5 -40
t-39.5 -24.5t-46.5 -8q4 -1 12 -2q7 -1 18.5 -1.5t29.5 -0.5q22 0 45 10t41.5 27.5t30 41.5t11.5 53q0 34 -12 57.5t-31.5 38.5t-44.5 23t-52 13v20h144q99 0 153 8.5t79.5 21.5t30.5 27.5t5 26.5q0 -9 -8 -21t-35.5 -22.5t-80 -17.5t-140.5 -7h-148q-56 0 -89 -6.5
t-51 -15.5t-24.5 -18.5t-7.5 -15.5v200q0 25 8.5 49t25 42.5t39 29.5t51.5 11q57 0 108 -16.5t98.5 -36t93 -35.5t92.5 -16q33 0 52.5 26.5t19.5 77.5h20v-196v0z" />
    <glyph glyph-name="asterisk" unicode="*" horiz-adv-x="833" 
d="M417 735q73 0 138 -28t113 -76t76 -113t28 -138q0 -74 -28 -139t-76 -113t-113 -76t-138 -28q-74 0 -139 28t-113 76t-76 113t-28 139q0 73 28 138t76 113t113 76t139 28zM175 275q0 -6 8 -6h84q7 0 7 6q0 7 -7 7h-38v189l104 -81l4 15l-111 87h-1v2h-2h-40q-8 0 -8 -8
q0 -7 8 -7h33v-197h-33q-8 0 -8 -7zM571 186q6 0 6 6q0 8 -6 8h-30l-49 166l-12 -10l22 -74h-171l86 288l49 -169l12 9l-52 177h37q8 0 8 7q0 8 -8 8h-94q-8 0 -8 -8q0 -7 8 -7h37l-115 -387h-29q-7 0 -7 -8q0 -6 7 -6h75q2 0 5 2t3 4q0 4 -3 6t-5 2h-31l21 69h180l19 -69
h-31q-6 0 -6 -8q0 -6 6 -6h40h36zM616 282v197h35q6 0 6 7q0 8 -6 8h-41h-1q-2 0 -2 -2h-1l-189 -150l-44 33l-4 -13l43 -35q4 -2 9 0l182 144v-189h-38q-7 0 -7 -7q0 -6 7 -6h86q6 0 6 6q0 7 -6 7h-35z" />
    <glyph glyph-name="period" unicode="." horiz-adv-x="308" 
d="M50 106q0 21 8.5 40t22.5 33t33 22.5t40 8.5t40 -8.5t33 -22.5t22.5 -33t8.5 -40t-8.5 -40t-22.5 -33t-33 -22.5t-40 -8.5t-40 8.5t-33 22.5t-22.5 33t-8.5 40z" />
    <glyph glyph-name="comma" unicode="," horiz-adv-x="308" 
d="M258 92q-2 -36 -16 -67.5t-37.5 -54.5t-55 -36.5t-67.5 -13.5v16q42 0 78.5 21.5t57.5 54.5q-15 -9 -30.5 -14.5t-33.5 -5.5q-21 0 -40 8.5t-33 22.5t-22.5 33t-8.5 40t8.5 40t22.5 33t33 22.5t40 8.5t40 -8.5t33 -22.5t22.5 -33t8.5 -40v-4z" />
    <glyph glyph-name="colon" unicode=":" horiz-adv-x="304" 
d="M50 96q0 21 8 40t21.5 33t32.5 22.5t42 8.5q21 0 39 -8.5t31.5 -22.5t21.5 -33t8 -40t-8 -40t-21.5 -33t-31.5 -22.5t-39 -8.5q-23 0 -42 8.5t-32.5 22.5t-21.5 33t-8 40zM50 380q0 42 29.5 71t74.5 29q21 0 39 -8t31.5 -21.5t21.5 -31.5t8 -39q0 -45 -29 -74.5
t-71 -29.5q-45 0 -74.5 29.5t-29.5 74.5z" />
    <glyph glyph-name="semicolon" unicode=";" horiz-adv-x="304" 
d="M50 370q0 42 29.5 71t74.5 29q21 0 39 -8t31.5 -21.5t21.5 -31.5t8 -39q0 -45 -29 -74.5t-71 -29.5q-45 0 -74.5 29.5t-29.5 74.5zM254 86q0 21 -8 40t-21.5 33t-31.5 22.5t-39 8.5q-23 0 -42 -8.5t-32.5 -22.5t-21.5 -33t-8 -40t8 -40t21.5 -33t32.5 -22.5t42 -8.5
q18 0 33 5.5t27 14.5q-21 -33 -56 -54.5t-80 -21.5v-16q36 0 68 13.5t56 36.5t38 54.5t14 67.5v4z" />
    <glyph glyph-name="hyphen" unicode="-" horiz-adv-x="412" 
d="M362 236h-312v188h312v-188v0z" />
    <glyph glyph-name="endash" unicode="&#x2013;" horiz-adv-x="652" 
d="M602 236h-552v188h552v-188v0z" />
    <glyph glyph-name="emdash" unicode="&#x2014;" horiz-adv-x="1044" 
d="M994 236h-944v188h944v-188v0z" />
    <glyph glyph-name="equal" unicode="=" horiz-adv-x="412" 
d="M362 342h-312v188h312v-188zM362 62h-312v188h312v-188z" />
    <glyph glyph-name="ellipsis" unicode="&#x2026;" horiz-adv-x="1008" 
d="M50 96q0 21 8.5 40t22.5 33t33 22.5t40 8.5t40 -8.5t33 -22.5t22.5 -33t8.5 -40t-8.5 -40t-22.5 -33t-33 -22.5t-40 -8.5t-40 8.5t-33 22.5t-22.5 33t-8.5 40zM400 96q0 21 8.5 40t22.5 33t33 22.5t40 8.5t40 -8.5t33 -22.5t22.5 -33t8.5 -40t-8.5 -40t-22.5 -33
t-33 -22.5t-40 -8.5t-40 8.5t-33 22.5t-22.5 33t-8.5 40zM750 96q0 21 8.5 40t22.5 33t33 22.5t40 8.5t40 -8.5t33 -22.5t22.5 -33t8.5 -40t-8.5 -40t-22.5 -33t-33 -22.5t-40 -8.5t-40 8.5t-33 22.5t-22.5 33t-8.5 40z" />
    <glyph glyph-name="A" unicode="A" 
d="M348 604q87 0 146 -24t95 -65t51.5 -96.5t15.5 -118.5q0 -65 -12 -121t-46 -97.5t-94 -65.5t-156 -24q-95 0 -154 24t-92.5 65.5t-45.5 97.5t-12 121q0 63 15.5 118.5t51 96.5t93.5 65t144 24z" />
    <glyph glyph-name="B" unicode="B" 
d="M348 604q87 0 146 -24t95 -65t51.5 -96.5t15.5 -118.5q0 -65 -12 -121t-46 -97.5t-94 -65.5t-156 -24q-95 0 -154 24t-92.5 65.5t-45.5 97.5t-12 121q0 63 15.5 118.5t51 96.5t93.5 65t144 24z" />
    <glyph glyph-name="C" unicode="C" 
d="M348 604q87 0 146 -24t95 -65t51.5 -96.5t15.5 -118.5q0 -65 -12 -121t-46 -97.5t-94 -65.5t-156 -24q-95 0 -154 24t-92.5 65.5t-45.5 97.5t-12 121q0 63 15.5 118.5t51 96.5t93.5 65t144 24z" />
    <glyph glyph-name="D" unicode="D" 
d="M348 604q87 0 146 -24t95 -65t51.5 -96.5t15.5 -118.5q0 -65 -12 -121t-46 -97.5t-94 -65.5t-156 -24q-95 0 -154 24t-92.5 65.5t-45.5 97.5t-12 121q0 63 15.5 118.5t51 96.5t93.5 65t144 24z" />
    <glyph glyph-name="E" unicode="E" 
d="M348 604q87 0 146 -24t95 -65t51.5 -96.5t15.5 -118.5q0 -65 -12 -121t-46 -97.5t-94 -65.5t-156 -24q-95 0 -154 24t-92.5 65.5t-45.5 97.5t-12 121q0 63 15.5 118.5t51 96.5t93.5 65t144 24z" />
    <glyph glyph-name="F" unicode="F" 
d="M348 604q87 0 146 -24t95 -65t51.5 -96.5t15.5 -118.5q0 -65 -12 -121t-46 -97.5t-94 -65.5t-156 -24q-95 0 -154 24t-92.5 65.5t-45.5 97.5t-12 121q0 63 15.5 118.5t51 96.5t93.5 65t144 24z" />
    <glyph glyph-name="G" unicode="G" 
d="M348 604q87 0 146 -24t95 -65t51.5 -96.5t15.5 -118.5q0 -65 -12 -121t-46 -97.5t-94 -65.5t-156 -24q-95 0 -154 24t-92.5 65.5t-45.5 97.5t-12 121q0 63 15.5 118.5t51 96.5t93.5 65t144 24z" />
    <glyph glyph-name="H" unicode="H" 
d="M348 604q87 0 146 -24t95 -65t51.5 -96.5t15.5 -118.5q0 -65 -12 -121t-46 -97.5t-94 -65.5t-156 -24q-95 0 -154 24t-92.5 65.5t-45.5 97.5t-12 121q0 63 15.5 118.5t51 96.5t93.5 65t144 24z" />
    <glyph glyph-name="I" unicode="I" 
d="M348 604q87 0 146 -24t95 -65t51.5 -96.5t15.5 -118.5q0 -65 -12 -121t-46 -97.5t-94 -65.5t-156 -24q-95 0 -154 24t-92.5 65.5t-45.5 97.5t-12 121q0 63 15.5 118.5t51 96.5t93.5 65t144 24z" />
    <glyph glyph-name="J" unicode="J" 
d="M348 604q87 0 146 -24t95 -65t51.5 -96.5t15.5 -118.5q0 -65 -12 -121t-46 -97.5t-94 -65.5t-156 -24q-95 0 -154 24t-92.5 65.5t-45.5 97.5t-12 121q0 63 15.5 118.5t51 96.5t93.5 65t144 24z" />
    <glyph glyph-name="K" unicode="K" 
d="M348 604q87 0 146 -24t95 -65t51.5 -96.5t15.5 -118.5q0 -65 -12 -121t-46 -97.5t-94 -65.5t-156 -24q-95 0 -154 24t-92.5 65.5t-45.5 97.5t-12 121q0 63 15.5 118.5t51 96.5t93.5 65t144 24z" />
    <glyph glyph-name="L" unicode="L" 
d="M348 604q87 0 146 -24t95 -65t51.5 -96.5t15.5 -118.5q0 -65 -12 -121t-46 -97.5t-94 -65.5t-156 -24q-95 0 -154 24t-92.5 65.5t-45.5 97.5t-12 121q0 63 15.5 118.5t51 96.5t93.5 65t144 24z" />
    <glyph glyph-name="M" unicode="M" 
d="M348 604q87 0 146 -24t95 -65t51.5 -96.5t15.5 -118.5q0 -65 -12 -121t-46 -97.5t-94 -65.5t-156 -24q-95 0 -154 24t-92.5 65.5t-45.5 97.5t-12 121q0 63 15.5 118.5t51 96.5t93.5 65t144 24z" />
    <glyph glyph-name="N" unicode="N" 
d="M348 604q87 0 146 -24t95 -65t51.5 -96.5t15.5 -118.5q0 -65 -12 -121t-46 -97.5t-94 -65.5t-156 -24q-95 0 -154 24t-92.5 65.5t-45.5 97.5t-12 121q0 63 15.5 118.5t51 96.5t93.5 65t144 24z" />
    <glyph glyph-name="O" unicode="O" 
d="M348 604q87 0 146 -24t95 -65t51.5 -96.5t15.5 -118.5q0 -65 -12 -121t-46 -97.5t-94 -65.5t-156 -24q-95 0 -154 24t-92.5 65.5t-45.5 97.5t-12 121q0 63 15.5 118.5t51 96.5t93.5 65t144 24z" />
    <glyph glyph-name="P" unicode="P" 
d="M348 604q87 0 146 -24t95 -65t51.5 -96.5t15.5 -118.5q0 -65 -12 -121t-46 -97.5t-94 -65.5t-156 -24q-95 0 -154 24t-92.5 65.5t-45.5 97.5t-12 121q0 63 15.5 118.5t51 96.5t93.5 65t144 24z" />
    <glyph glyph-name="Q" unicode="Q" 
d="M348 604q87 0 146 -24t95 -65t51.5 -96.5t15.5 -118.5q0 -65 -12 -121t-46 -97.5t-94 -65.5t-156 -24q-95 0 -154 24t-92.5 65.5t-45.5 97.5t-12 121q0 63 15.5 118.5t51 96.5t93.5 65t144 24z" />
    <glyph glyph-name="R" unicode="R" 
d="M348 604q87 0 146 -24t95 -65t51.5 -96.5t15.5 -118.5q0 -65 -12 -121t-46 -97.5t-94 -65.5t-156 -24q-95 0 -154 24t-92.5 65.5t-45.5 97.5t-12 121q0 63 15.5 118.5t51 96.5t93.5 65t144 24z" />
    <glyph glyph-name="S" unicode="S" 
d="M348 604q87 0 146 -24t95 -65t51.5 -96.5t15.5 -118.5q0 -65 -12 -121t-46 -97.5t-94 -65.5t-156 -24q-95 0 -154 24t-92.5 65.5t-45.5 97.5t-12 121q0 63 15.5 118.5t51 96.5t93.5 65t144 24z" />
    <glyph glyph-name="T" unicode="T" 
d="M348 604q87 0 146 -24t95 -65t51.5 -96.5t15.5 -118.5q0 -65 -12 -121t-46 -97.5t-94 -65.5t-156 -24q-95 0 -154 24t-92.5 65.5t-45.5 97.5t-12 121q0 63 15.5 118.5t51 96.5t93.5 65t144 24z" />
    <glyph glyph-name="U" unicode="U" 
d="M348 604q87 0 146 -24t95 -65t51.5 -96.5t15.5 -118.5q0 -65 -12 -121t-46 -97.5t-94 -65.5t-156 -24q-95 0 -154 24t-92.5 65.5t-45.5 97.5t-12 121q0 63 15.5 118.5t51 96.5t93.5 65t144 24z" />
    <glyph glyph-name="V" unicode="V" 
d="M348 604q87 0 146 -24t95 -65t51.5 -96.5t15.5 -118.5q0 -65 -12 -121t-46 -97.5t-94 -65.5t-156 -24q-95 0 -154 24t-92.5 65.5t-45.5 97.5t-12 121q0 63 15.5 118.5t51 96.5t93.5 65t144 24z" />
    <glyph glyph-name="W" unicode="W" 
d="M348 604q87 0 146 -24t95 -65t51.5 -96.5t15.5 -118.5q0 -65 -12 -121t-46 -97.5t-94 -65.5t-156 -24q-95 0 -154 24t-92.5 65.5t-45.5 97.5t-12 121q0 63 15.5 118.5t51 96.5t93.5 65t144 24z" />
    <glyph glyph-name="X" unicode="X" 
d="M348 604q87 0 146 -24t95 -65t51.5 -96.5t15.5 -118.5q0 -65 -12 -121t-46 -97.5t-94 -65.5t-156 -24q-95 0 -154 24t-92.5 65.5t-45.5 97.5t-12 121q0 63 15.5 118.5t51 96.5t93.5 65t144 24z" />
    <glyph glyph-name="Y" unicode="Y" 
d="M348 604q87 0 146 -24t95 -65t51.5 -96.5t15.5 -118.5q0 -65 -12 -121t-46 -97.5t-94 -65.5t-156 -24q-95 0 -154 24t-92.5 65.5t-45.5 97.5t-12 121q0 63 15.5 118.5t51 96.5t93.5 65t144 24z" />
    <glyph glyph-name="Z" unicode="Z" 
d="M348 604q87 0 146 -24t95 -65t51.5 -96.5t15.5 -118.5q0 -65 -12 -121t-46 -97.5t-94 -65.5t-156 -24q-95 0 -154 24t-92.5 65.5t-45.5 97.5t-12 121q0 63 15.5 118.5t51 96.5t93.5 65t144 24z" />
    <glyph glyph-name="a" unicode="a" 
d="M348 604q87 0 146 -24t95 -65t51.5 -96.5t15.5 -118.5q0 -65 -12 -121t-46 -97.5t-94 -65.5t-156 -24q-95 0 -154 24t-92.5 65.5t-45.5 97.5t-12 121q0 63 15.5 118.5t51 96.5t93.5 65t144 24z" />
    <glyph glyph-name="b" unicode="b" 
d="M348 604q87 0 146 -24t95 -65t51.5 -96.5t15.5 -118.5q0 -65 -12 -121t-46 -97.5t-94 -65.5t-156 -24q-95 0 -154 24t-92.5 65.5t-45.5 97.5t-12 121q0 63 15.5 118.5t51 96.5t93.5 65t144 24z" />
    <glyph glyph-name="c" unicode="c" 
d="M348 604q87 0 146 -24t95 -65t51.5 -96.5t15.5 -118.5q0 -65 -12 -121t-46 -97.5t-94 -65.5t-156 -24q-95 0 -154 24t-92.5 65.5t-45.5 97.5t-12 121q0 63 15.5 118.5t51 96.5t93.5 65t144 24z" />
    <glyph glyph-name="d" unicode="d" 
d="M348 604q87 0 146 -24t95 -65t51.5 -96.5t15.5 -118.5q0 -65 -12 -121t-46 -97.5t-94 -65.5t-156 -24q-95 0 -154 24t-92.5 65.5t-45.5 97.5t-12 121q0 63 15.5 118.5t51 96.5t93.5 65t144 24z" />
    <glyph glyph-name="e" unicode="e" 
d="M348 604q87 0 146 -24t95 -65t51.5 -96.5t15.5 -118.5q0 -65 -12 -121t-46 -97.5t-94 -65.5t-156 -24q-95 0 -154 24t-92.5 65.5t-45.5 97.5t-12 121q0 63 15.5 118.5t51 96.5t93.5 65t144 24z" />
    <glyph glyph-name="f" unicode="f" 
d="M348 604q87 0 146 -24t95 -65t51.5 -96.5t15.5 -118.5q0 -65 -12 -121t-46 -97.5t-94 -65.5t-156 -24q-95 0 -154 24t-92.5 65.5t-45.5 97.5t-12 121q0 63 15.5 118.5t51 96.5t93.5 65t144 24z" />
    <glyph glyph-name="g" unicode="g" 
d="M348 604q87 0 146 -24t95 -65t51.5 -96.5t15.5 -118.5q0 -65 -12 -121t-46 -97.5t-94 -65.5t-156 -24q-95 0 -154 24t-92.5 65.5t-45.5 97.5t-12 121q0 63 15.5 118.5t51 96.5t93.5 65t144 24z" />
    <glyph glyph-name="h" unicode="h" 
d="M348 604q87 0 146 -24t95 -65t51.5 -96.5t15.5 -118.5q0 -65 -12 -121t-46 -97.5t-94 -65.5t-156 -24q-95 0 -154 24t-92.5 65.5t-45.5 97.5t-12 121q0 63 15.5 118.5t51 96.5t93.5 65t144 24z" />
    <glyph glyph-name="i" unicode="i" 
d="M348 604q87 0 146 -24t95 -65t51.5 -96.5t15.5 -118.5q0 -65 -12 -121t-46 -97.5t-94 -65.5t-156 -24q-95 0 -154 24t-92.5 65.5t-45.5 97.5t-12 121q0 63 15.5 118.5t51 96.5t93.5 65t144 24z" />
    <glyph glyph-name="j" unicode="j" 
d="M348 604q87 0 146 -24t95 -65t51.5 -96.5t15.5 -118.5q0 -65 -12 -121t-46 -97.5t-94 -65.5t-156 -24q-95 0 -154 24t-92.5 65.5t-45.5 97.5t-12 121q0 63 15.5 118.5t51 96.5t93.5 65t144 24z" />
    <glyph glyph-name="k" unicode="k" 
d="M348 604q87 0 146 -24t95 -65t51.5 -96.5t15.5 -118.5q0 -65 -12 -121t-46 -97.5t-94 -65.5t-156 -24q-95 0 -154 24t-92.5 65.5t-45.5 97.5t-12 121q0 63 15.5 118.5t51 96.5t93.5 65t144 24z" />
    <glyph glyph-name="l" unicode="l" 
d="M348 604q87 0 146 -24t95 -65t51.5 -96.5t15.5 -118.5q0 -65 -12 -121t-46 -97.5t-94 -65.5t-156 -24q-95 0 -154 24t-92.5 65.5t-45.5 97.5t-12 121q0 63 15.5 118.5t51 96.5t93.5 65t144 24z" />
    <glyph glyph-name="m" unicode="m" 
d="M348 604q87 0 146 -24t95 -65t51.5 -96.5t15.5 -118.5q0 -65 -12 -121t-46 -97.5t-94 -65.5t-156 -24q-95 0 -154 24t-92.5 65.5t-45.5 97.5t-12 121q0 63 15.5 118.5t51 96.5t93.5 65t144 24z" />
    <glyph glyph-name="n" unicode="n" 
d="M348 604q87 0 146 -24t95 -65t51.5 -96.5t15.5 -118.5q0 -65 -12 -121t-46 -97.5t-94 -65.5t-156 -24q-95 0 -154 24t-92.5 65.5t-45.5 97.5t-12 121q0 63 15.5 118.5t51 96.5t93.5 65t144 24z" />
    <glyph glyph-name="o" unicode="o" 
d="M348 604q87 0 146 -24t95 -65t51.5 -96.5t15.5 -118.5q0 -65 -12 -121t-46 -97.5t-94 -65.5t-156 -24q-95 0 -154 24t-92.5 65.5t-45.5 97.5t-12 121q0 63 15.5 118.5t51 96.5t93.5 65t144 24z" />
    <glyph glyph-name="p" unicode="p" 
d="M348 604q87 0 146 -24t95 -65t51.5 -96.5t15.5 -118.5q0 -65 -12 -121t-46 -97.5t-94 -65.5t-156 -24q-95 0 -154 24t-92.5 65.5t-45.5 97.5t-12 121q0 63 15.5 118.5t51 96.5t93.5 65t144 24z" />
    <glyph glyph-name="q" unicode="q" 
d="M348 604q87 0 146 -24t95 -65t51.5 -96.5t15.5 -118.5q0 -65 -12 -121t-46 -97.5t-94 -65.5t-156 -24q-95 0 -154 24t-92.5 65.5t-45.5 97.5t-12 121q0 63 15.5 118.5t51 96.5t93.5 65t144 24z" />
    <glyph glyph-name="r" unicode="r" 
d="M348 604q87 0 146 -24t95 -65t51.5 -96.5t15.5 -118.5q0 -65 -12 -121t-46 -97.5t-94 -65.5t-156 -24q-95 0 -154 24t-92.5 65.5t-45.5 97.5t-12 121q0 63 15.5 118.5t51 96.5t93.5 65t144 24z" />
    <glyph glyph-name="s" unicode="s" 
d="M348 604q87 0 146 -24t95 -65t51.5 -96.5t15.5 -118.5q0 -65 -12 -121t-46 -97.5t-94 -65.5t-156 -24q-95 0 -154 24t-92.5 65.5t-45.5 97.5t-12 121q0 63 15.5 118.5t51 96.5t93.5 65t144 24z" />
    <glyph glyph-name="t" unicode="t" 
d="M348 604q87 0 146 -24t95 -65t51.5 -96.5t15.5 -118.5q0 -65 -12 -121t-46 -97.5t-94 -65.5t-156 -24q-95 0 -154 24t-92.5 65.5t-45.5 97.5t-12 121q0 63 15.5 118.5t51 96.5t93.5 65t144 24z" />
    <glyph glyph-name="u" unicode="u" 
d="M348 604q87 0 146 -24t95 -65t51.5 -96.5t15.5 -118.5q0 -65 -12 -121t-46 -97.5t-94 -65.5t-156 -24q-95 0 -154 24t-92.5 65.5t-45.5 97.5t-12 121q0 63 15.5 118.5t51 96.5t93.5 65t144 24z" />
    <glyph glyph-name="v" unicode="v" 
d="M348 604q87 0 146 -24t95 -65t51.5 -96.5t15.5 -118.5q0 -65 -12 -121t-46 -97.5t-94 -65.5t-156 -24q-95 0 -154 24t-92.5 65.5t-45.5 97.5t-12 121q0 63 15.5 118.5t51 96.5t93.5 65t144 24z" />
    <glyph glyph-name="w" unicode="w" 
d="M348 604q87 0 146 -24t95 -65t51.5 -96.5t15.5 -118.5q0 -65 -12 -121t-46 -97.5t-94 -65.5t-156 -24q-95 0 -154 24t-92.5 65.5t-45.5 97.5t-12 121q0 63 15.5 118.5t51 96.5t93.5 65t144 24z" />
    <glyph glyph-name="x" unicode="x" 
d="M348 604q87 0 146 -24t95 -65t51.5 -96.5t15.5 -118.5q0 -65 -12 -121t-46 -97.5t-94 -65.5t-156 -24q-95 0 -154 24t-92.5 65.5t-45.5 97.5t-12 121q0 63 15.5 118.5t51 96.5t93.5 65t144 24z" />
    <glyph glyph-name="y" unicode="y" 
d="M348 604q87 0 146 -24t95 -65t51.5 -96.5t15.5 -118.5q0 -65 -12 -121t-46 -97.5t-94 -65.5t-156 -24q-95 0 -154 24t-92.5 65.5t-45.5 97.5t-12 121q0 63 15.5 118.5t51 96.5t93.5 65t144 24z" />
    <glyph glyph-name="z" unicode="z" 
d="M348 604q87 0 146 -24t95 -65t51.5 -96.5t15.5 -118.5q0 -65 -12 -121t-46 -97.5t-94 -65.5t-156 -24q-95 0 -154 24t-92.5 65.5t-45.5 97.5t-12 121q0 63 15.5 118.5t51 96.5t93.5 65t144 24z" />
    <glyph glyph-name="quoteright" unicode="&#x2019;" horiz-adv-x="308" 
d="M258 677q-2 -36 -16 -67.5t-37.5 -54.5t-55 -36.5t-67.5 -13.5v16q42 0 78.5 21.5t57.5 54.5q-15 -9 -30.5 -14.5t-33.5 -5.5q-21 0 -40 8.5t-33 22.5t-22.5 33t-8.5 40t8.5 40t22.5 33t33 22.5t40 8.5t40 -8.5t33 -22.5t22.5 -33t8.5 -40v-4z" />
    <glyph glyph-name="quoteleft" unicode="&#x2018;" horiz-adv-x="308" 
d="M50 613q1 36 15.5 67.5t38 54.5t55 36.5t67.5 13.5v-16q-42 0 -78.5 -21.5t-57.5 -54.5q15 9 30.5 14.5t33.5 5.5q21 0 40 -8.5t33 -22.5t22.5 -33t8.5 -40t-8.5 -40t-22.5 -33t-33 -22.5t-40 -8.5t-40 8.5t-33 22.5t-22.5 33t-8.5 40v4z" />
    <glyph glyph-name="periodcentered" unicode="&#xb7;" horiz-adv-x="308" 
d="M50 336q0 21 8.5 40t22.5 33t33 22.5t40 8.5t40 -8.5t33 -22.5t22.5 -33t8.5 -40t-8.5 -40t-22.5 -33t-33 -22.5t-40 -8.5t-40 8.5t-33 22.5t-22.5 33t-8.5 40z" />
    <glyph glyph-name="underscore" unicode="_" horiz-adv-x="943" 
d="M944 -250h-944v178h944v-178v0z" />
    <glyph glyph-name="bullet" unicode="&#x2022;" horiz-adv-x="412" 
d="M50 336q0 31 12.5 59.5t34 50t49.5 34t60 12.5q31 0 59.5 -12.5t50 -34t34 -50t12.5 -59.5q0 -32 -12.5 -60t-34 -49.5t-50 -34t-59.5 -12.5q-32 0 -60 12.5t-49.5 34t-34 49.5t-12.5 60z" />
    <glyph glyph-name="bar" unicode="|" horiz-adv-x="268" 
d="M218 751v-783h-168v783h168v0z" />
    <glyph glyph-name="brokenbar" unicode="&#xa6;" horiz-adv-x="268" 
d="M218 751v-363h-168v363h168v0zM218 331v-363h-168v363h168z" />
  </font>
</defs>
</svg>
